<svg width="112" height="40" viewBox="0 0 112 40" fill="none" xmlns="http://www.w3.org/2000/svg">
<g filter="url(#filter0_dddd_455_2082)">
<rect width="112" height="40" rx="3.2" fill="white"/>
<rect x="0.8" y="0.8" width="110.4" height="38.4" rx="2.4" stroke="#E8E8E8" stroke-width="1.6"/>
</g>
<path d="M45.4819 13.6C45.4194 13.4087 45.337 13.2373 45.2347 13.0858C45.1343 12.9324 45.0141 12.8017 44.8739 12.6937C44.7357 12.5858 44.5785 12.5034 44.4023 12.4466C44.2262 12.3897 44.033 12.3613 43.8228 12.3613C43.4781 12.3613 43.1646 12.4504 42.8824 12.6284C42.6002 12.8064 42.3758 13.0687 42.2091 13.4153C42.0425 13.7619 41.9591 14.1871 41.9591 14.6909C41.9591 15.1947 42.0434 15.6199 42.212 15.9665C42.3805 16.313 42.6088 16.5754 42.8966 16.7534C43.1845 16.9314 43.5084 17.0204 43.8682 17.0204C44.2016 17.0204 44.4951 16.9494 44.7489 16.8074C45.0046 16.6634 45.2035 16.4608 45.3455 16.1994C45.4894 15.9361 45.5614 15.6265 45.5614 15.2704L45.7773 15.3159H44.0273V14.6909H46.2432V15.3159C46.2432 15.7951 46.141 16.2117 45.9364 16.5659C45.7338 16.9201 45.4535 17.1947 45.0955 17.3897C44.7394 17.5829 44.3304 17.6795 43.8682 17.6795C43.3531 17.6795 42.9004 17.5583 42.5103 17.3159C42.122 17.0735 41.819 16.7288 41.6012 16.2818C41.3853 15.8348 41.2773 15.3045 41.2773 14.6909C41.2773 14.2307 41.3389 13.8168 41.462 13.4494C41.587 13.0801 41.7631 12.7657 41.9904 12.5062C42.2177 12.2468 42.4866 12.0479 42.7972 11.9096C43.1078 11.7714 43.4497 11.7022 43.8228 11.7022C44.1296 11.7022 44.4156 11.7486 44.6807 11.8415C44.9478 11.9324 45.1855 12.0621 45.3938 12.2307C45.604 12.3973 45.7792 12.5971 45.9194 12.8301C46.0595 13.0611 46.1561 13.3178 46.2091 13.6H45.4819ZM49.1885 17.6909C48.7681 17.6909 48.4054 17.5981 48.1005 17.4125C47.7974 17.225 47.5635 16.9636 47.3988 16.6284C47.2359 16.2913 47.1545 15.8992 47.1545 15.4522C47.1545 15.0053 47.2359 14.6113 47.3988 14.2704C47.5635 13.9276 47.7927 13.6606 48.0863 13.4693C48.3817 13.2761 48.7264 13.1795 49.1204 13.1795C49.3476 13.1795 49.5721 13.2174 49.7937 13.2932C50.0152 13.3689 50.217 13.492 50.3988 13.6625C50.5806 13.831 50.7255 14.0545 50.8334 14.3329C50.9414 14.6113 50.9954 14.9541 50.9954 15.3613V15.6454H47.6317V15.0659H50.3135C50.3135 14.8197 50.2643 14.6 50.1658 14.4068C50.0692 14.2136 49.931 14.0611 49.751 13.9494C49.573 13.8377 49.3628 13.7818 49.1204 13.7818C48.8533 13.7818 48.6223 13.8481 48.4272 13.9807C48.234 14.1113 48.0853 14.2818 47.9812 14.492C47.877 14.7022 47.8249 14.9276 47.8249 15.1682V15.5545C47.8249 15.8841 47.8817 16.1634 47.9954 16.3926C48.1109 16.6199 48.2709 16.7932 48.4755 16.9125C48.68 17.0299 48.9177 17.0886 49.1885 17.0886C49.3647 17.0886 49.5238 17.064 49.6658 17.0147C49.8098 16.9636 49.9338 16.8879 50.038 16.7875C50.1421 16.6852 50.2226 16.5583 50.2795 16.4068L50.9272 16.5886C50.859 16.8083 50.7444 17.0015 50.5834 17.1682C50.4224 17.3329 50.2236 17.4617 49.9868 17.5545C49.7501 17.6454 49.484 17.6909 49.1885 17.6909ZM53.913 13.2363V13.8045H51.6516V13.2363H53.913ZM52.3107 12.1909H52.9812V16.35C52.9812 16.5394 53.0086 16.6814 53.0635 16.7761C53.1204 16.8689 53.1923 16.9314 53.2795 16.9636C53.3685 16.9939 53.4622 17.0091 53.5607 17.0091C53.6346 17.0091 53.6952 17.0053 53.7425 16.9977C53.7899 16.9882 53.8277 16.9807 53.8562 16.975L53.9925 17.5772C53.9471 17.5943 53.8836 17.6113 53.8022 17.6284C53.7207 17.6473 53.6175 17.6568 53.4925 17.6568C53.3031 17.6568 53.1175 17.6161 52.9357 17.5346C52.7558 17.4532 52.6062 17.3291 52.4868 17.1625C52.3694 16.9958 52.3107 16.7856 52.3107 16.5318V12.1909ZM57.1715 17.6V13.2363H57.842V17.6H57.1715ZM57.5124 12.5091C57.3817 12.5091 57.269 12.4646 57.1743 12.3755C57.0815 12.2865 57.0351 12.1795 57.0351 12.0545C57.0351 11.9295 57.0815 11.8225 57.1743 11.7335C57.269 11.6445 57.3817 11.6 57.5124 11.6C57.6431 11.6 57.7548 11.6445 57.8476 11.7335C57.9423 11.8225 57.9897 11.9295 57.9897 12.0545C57.9897 12.1795 57.9423 12.2865 57.8476 12.3755C57.7548 12.4646 57.6431 12.5091 57.5124 12.5091ZM60.9677 13.2363V13.8045H58.7063V13.2363H60.9677ZM59.3654 12.1909H60.0358V16.35C60.0358 16.5394 60.0633 16.6814 60.1182 16.7761C60.175 16.8689 60.247 16.9314 60.3341 16.9636C60.4232 16.9939 60.5169 17.0091 60.6154 17.0091C60.6893 17.0091 60.7499 17.0053 60.7972 16.9977C60.8446 16.9882 60.8824 16.9807 60.9108 16.975L61.0472 17.5772C61.0018 17.5943 60.9383 17.6113 60.8569 17.6284C60.7754 17.6473 60.6722 17.6568 60.5472 17.6568C60.3578 17.6568 60.1722 17.6161 59.9904 17.5346C59.8105 17.4532 59.6608 17.3291 59.5415 17.1625C59.4241 16.9958 59.3654 16.7856 59.3654 16.5318V12.1909ZM69.2262 14.6909C69.2262 15.3045 69.1154 15.8348 68.8938 16.2818C68.6722 16.7288 68.3682 17.0735 67.9819 17.3159C67.5955 17.5583 67.1542 17.6795 66.658 17.6795C66.1618 17.6795 65.7205 17.5583 65.3341 17.3159C64.9478 17.0735 64.6438 16.7288 64.4222 16.2818C64.2006 15.8348 64.0898 15.3045 64.0898 14.6909C64.0898 14.0772 64.2006 13.5469 64.4222 13.1C64.6438 12.653 64.9478 12.3083 65.3341 12.0659C65.7205 11.8235 66.1618 11.7022 66.658 11.7022C67.1542 11.7022 67.5955 11.8235 67.9819 12.0659C68.3682 12.3083 68.6722 12.653 68.8938 13.1C69.1154 13.5469 69.2262 14.0772 69.2262 14.6909ZM68.5444 14.6909C68.5444 14.1871 68.4601 13.7619 68.2915 13.4153C68.1249 13.0687 67.8985 12.8064 67.6125 12.6284C67.3285 12.4504 67.0103 12.3613 66.658 12.3613C66.3057 12.3613 65.9866 12.4504 65.7006 12.6284C65.4165 12.8064 65.1902 13.0687 65.0216 13.4153C64.855 13.7619 64.7716 14.1871 64.7716 14.6909C64.7716 15.1947 64.855 15.6199 65.0216 15.9665C65.1902 16.313 65.4165 16.5754 65.7006 16.7534C65.9866 16.9314 66.3057 17.0204 66.658 17.0204C67.0103 17.0204 67.3285 16.9314 67.6125 16.7534C67.8985 16.5754 68.1249 16.313 68.2915 15.9665C68.4601 15.6199 68.5444 15.1947 68.5444 14.6909ZM70.9904 14.975V17.6H70.3199V13.2363H70.9677V13.9182H71.0245C71.1268 13.6966 71.2821 13.5185 71.4904 13.3841C71.6987 13.2477 71.9677 13.1795 72.2972 13.1795C72.5927 13.1795 72.8512 13.2401 73.0728 13.3613C73.2944 13.4807 73.4667 13.6625 73.5898 13.9068C73.7129 14.1492 73.7745 14.456 73.7745 14.8272V17.6H73.104V14.8727C73.104 14.5299 73.015 14.2629 72.837 14.0716C72.659 13.8784 72.4146 13.7818 72.104 13.7818C71.89 13.7818 71.6987 13.8282 71.5302 13.921C71.3635 14.0138 71.2319 14.1492 71.1353 14.3272C71.0387 14.5053 70.9904 14.7212 70.9904 14.975Z" fill="#282828"/>
<path d="M46.9091 25.4875C46.8535 25.2939 46.7752 25.1229 46.6745 24.9744C46.5737 24.8233 46.4504 24.696 46.3046 24.5926C46.1614 24.4866 45.997 24.4057 45.8114 24.35C45.6285 24.2943 45.4256 24.2665 45.2029 24.2665C44.7866 24.2665 44.4207 24.3699 44.1052 24.5767C43.7923 24.7835 43.5483 25.0845 43.3733 25.4795C43.1983 25.872 43.1108 26.3519 43.1108 26.9193C43.1108 27.4867 43.197 27.9693 43.3694 28.367C43.5417 28.7648 43.7857 29.0684 44.1012 29.2778C44.4167 29.4847 44.7893 29.5881 45.2188 29.5881C45.6086 29.5881 45.9413 29.5191 46.2171 29.3813C46.4955 29.2407 46.7076 29.0432 46.8535 28.7886C47.0019 28.5341 47.0762 28.2331 47.0762 27.8858L47.4262 27.9375H45.3262V26.6409H48.7347V27.667C48.7347 28.383 48.5836 28.9981 48.2813 29.5125C47.979 30.0242 47.5627 30.4193 47.0324 30.6977C46.5021 30.9735 45.8949 31.1114 45.2108 31.1114C44.4472 31.1114 43.7764 30.943 43.1983 30.6063C42.6203 30.2669 42.1696 29.7856 41.8461 29.1625C41.5252 28.5367 41.3648 27.7943 41.3648 26.9352C41.3648 26.275 41.4603 25.6864 41.6512 25.1693C41.8447 24.6496 42.1152 24.2095 42.4625 23.8489C42.8099 23.4883 43.2143 23.2138 43.6756 23.0256C44.137 22.8373 44.6368 22.7432 45.175 22.7432C45.6364 22.7432 46.066 22.8108 46.4637 22.946C46.8614 23.0786 47.2141 23.2669 47.5216 23.5108C47.8319 23.7547 48.0851 24.0451 48.2813 24.3818C48.4775 24.7159 48.6035 25.0845 48.6591 25.4875H46.9091ZM52.7567 31.1193C52.1389 31.1193 51.6046 30.9881 51.1539 30.7256C50.7058 30.4604 50.3598 30.0919 50.1158 29.6199C49.8719 29.1453 49.7499 28.5951 49.7499 27.9693C49.7499 27.3383 49.8719 26.7867 50.1158 26.3148C50.3598 25.8402 50.7058 25.4716 51.1539 25.2091C51.6046 24.9439 52.1389 24.8114 52.7567 24.8114C53.3745 24.8114 53.9075 24.9439 54.3556 25.2091C54.8063 25.4716 55.1537 25.8402 55.3976 26.3148C55.6416 26.7867 55.7635 27.3383 55.7635 27.9693C55.7635 28.5951 55.6416 29.1453 55.3976 29.6199C55.1537 30.0919 54.8063 30.4604 54.3556 30.7256C53.9075 30.9881 53.3745 31.1193 52.7567 31.1193ZM52.7647 29.8068C53.0457 29.8068 53.2804 29.7273 53.4687 29.5682C53.6569 29.4064 53.7988 29.1864 53.8942 28.908C53.9923 28.6295 54.0414 28.3127 54.0414 27.9574C54.0414 27.6021 53.9923 27.2852 53.8942 27.0068C53.7988 26.7284 53.6569 26.5083 53.4687 26.3466C53.2804 26.1848 53.0457 26.104 52.7647 26.104C52.481 26.104 52.2423 26.1848 52.0488 26.3466C51.8579 26.5083 51.7134 26.7284 51.6152 27.0068C51.5198 27.2852 51.4721 27.6021 51.4721 27.9574C51.4721 28.3127 51.5198 28.6295 51.6152 28.908C51.7134 29.1864 51.8579 29.4064 52.0488 29.5682C52.2423 29.7273 52.481 29.8068 52.7647 29.8068ZM59.6255 31.1193C59.0077 31.1193 58.4734 30.9881 58.0226 30.7256C57.5745 30.4604 57.2285 30.0919 56.9846 29.6199C56.7406 29.1453 56.6187 28.5951 56.6187 27.9693C56.6187 27.3383 56.7406 26.7867 56.9846 26.3148C57.2285 25.8402 57.5745 25.4716 58.0226 25.2091C58.4734 24.9439 59.0077 24.8114 59.6255 24.8114C60.2433 24.8114 60.7762 24.9439 61.2243 25.2091C61.6751 25.4716 62.0224 25.8402 62.2664 26.3148C62.5103 26.7867 62.6323 27.3383 62.6323 27.9693C62.6323 28.5951 62.5103 29.1453 62.2664 29.6199C62.0224 30.0919 61.6751 30.4604 61.2243 30.7256C60.7762 30.9881 60.2433 31.1193 59.6255 31.1193ZM59.6334 29.8068C59.9145 29.8068 60.1491 29.7273 60.3374 29.5682C60.5257 29.4064 60.6675 29.1864 60.763 28.908C60.8611 28.6295 60.9101 28.3127 60.9101 27.9574C60.9101 27.6021 60.8611 27.2852 60.763 27.0068C60.6675 26.7284 60.5257 26.5083 60.3374 26.3466C60.1491 26.1848 59.9145 26.104 59.6334 26.104C59.3497 26.104 59.1111 26.1848 58.9175 26.3466C58.7266 26.5083 58.5821 26.7284 58.484 27.0068C58.3885 27.2852 58.3408 27.6021 58.3408 27.9574C58.3408 28.3127 58.3885 28.6295 58.484 28.908C58.5821 29.1864 58.7266 29.4064 58.9175 29.5682C59.1111 29.7273 59.3497 29.8068 59.6334 29.8068ZM66.4863 33.4182C65.9374 33.4182 65.4668 33.3426 65.0743 33.1915C64.6846 33.043 64.3743 32.8402 64.1437 32.583C63.913 32.3258 63.7632 32.0367 63.6942 31.7159L65.2613 31.5051C65.309 31.6271 65.3846 31.7411 65.488 31.8472C65.5914 31.9532 65.7279 32.0381 65.8976 32.1017C66.07 32.168 66.2795 32.2011 66.526 32.2011C66.8946 32.2011 67.1982 32.111 67.4368 31.9307C67.6781 31.753 67.7988 31.4547 67.7988 31.0358V29.9182H67.7272C67.6529 30.0879 67.5416 30.2483 67.3931 30.3994C67.2446 30.5506 67.0537 30.6739 66.8204 30.7693C66.587 30.8648 66.3086 30.9125 65.9851 30.9125C65.5264 30.9125 65.1088 30.8064 64.7323 30.5943C64.3584 30.3795 64.0601 30.0521 63.8374 29.6119C63.6173 29.1691 63.5073 28.6097 63.5073 27.9335C63.5073 27.2415 63.62 26.6634 63.8454 26.1994C64.0707 25.7354 64.3704 25.3881 64.7442 25.1574C65.1207 24.9267 65.5331 24.8114 65.9812 24.8114C66.3232 24.8114 66.6096 24.8697 66.8402 24.9864C67.0709 25.1004 67.2565 25.2436 67.3971 25.4159C67.5402 25.5856 67.6503 25.7527 67.7272 25.917H67.7908V24.8909H69.4732V31.0597C69.4732 31.5794 69.3459 32.0142 69.0914 32.3642C68.8368 32.7142 68.4842 32.9767 68.0334 33.1517C67.5853 33.3294 67.0696 33.4182 66.4863 33.4182ZM66.5221 29.6398C66.7952 29.6398 67.0259 29.5722 67.2141 29.4369C67.405 29.2991 67.5509 29.1028 67.6516 28.8483C67.755 28.5911 67.8067 28.2835 67.8067 27.9256C67.8067 27.5676 67.7563 27.2574 67.6556 26.9949C67.5548 26.7297 67.409 26.5242 67.2181 26.3784C67.0272 26.2326 66.7952 26.1597 66.5221 26.1597C66.2437 26.1597 66.009 26.2352 65.8181 26.3864C65.6272 26.5348 65.4827 26.7417 65.3846 27.0068C65.2865 27.272 65.2374 27.5782 65.2374 27.9256C65.2374 28.2782 65.2865 28.5831 65.3846 28.8403C65.4853 29.0949 65.6298 29.2924 65.8181 29.433C66.009 29.5708 66.2437 29.6398 66.5221 29.6398ZM72.5158 22.8545V31H70.8215V22.8545H72.5158ZM76.6571 31.1193C76.0287 31.1193 75.4878 30.992 75.0344 30.7375C74.5837 30.4803 74.2363 30.117 73.9924 29.6477C73.7484 29.1758 73.6265 28.6176 73.6265 27.9733C73.6265 27.3449 73.7484 26.7934 73.9924 26.3188C74.2363 25.8441 74.5797 25.4742 75.0225 25.2091C75.4679 24.9439 75.9903 24.8114 76.5895 24.8114C76.9926 24.8114 77.3678 24.8763 77.7151 25.0063C78.0651 25.1335 78.37 25.3258 78.6299 25.583C78.8924 25.8402 79.0965 26.1636 79.2424 26.5534C79.3882 26.9405 79.4611 27.3939 79.4611 27.9136V28.379H74.3026V27.329H77.8662C77.8662 27.085 77.8132 26.8689 77.7071 26.6807C77.6011 26.4924 77.4539 26.3453 77.2657 26.2392C77.0801 26.1305 76.864 26.0761 76.6174 26.0761C76.3602 26.0761 76.1321 26.1358 75.9333 26.2551C75.7371 26.3718 75.5833 26.5295 75.4719 26.7284C75.3606 26.9246 75.3036 27.1434 75.3009 27.3847V28.383C75.3009 28.6852 75.3566 28.9464 75.4679 29.1665C75.582 29.3866 75.7424 29.5563 75.9492 29.6756C76.156 29.7949 76.4013 29.8545 76.685 29.8545C76.8732 29.8545 77.0456 29.828 77.202 29.775C77.3585 29.722 77.4924 29.6424 77.6037 29.5364C77.7151 29.4303 77.8 29.3004 77.8583 29.1466L79.4253 29.25C79.3458 29.6265 79.1827 29.9553 78.9361 30.2364C78.6922 30.5148 78.3767 30.7322 77.9895 30.8886C77.6051 31.0424 77.1609 31.1193 76.6571 31.1193ZM83.1908 31V22.8545H86.4045C87.0223 22.8545 87.5486 22.9725 87.9834 23.2085C88.4183 23.4419 88.7497 23.7667 88.9777 24.183C89.2084 24.5966 89.3238 25.0739 89.3238 25.6148C89.3238 26.1557 89.2071 26.633 88.9738 27.0466C88.7404 27.4602 88.4024 27.7824 87.9596 28.0131C87.5194 28.2437 86.9865 28.3591 86.3607 28.3591H84.3124V26.979H86.0823C86.4137 26.979 86.6868 26.922 86.9016 26.808C87.119 26.6913 87.2808 26.5309 87.3868 26.3267C87.4955 26.1199 87.5499 25.8826 87.5499 25.6148C87.5499 25.3443 87.4955 25.1083 87.3868 24.9068C87.2808 24.7027 87.119 24.5449 86.9016 24.4335C86.6842 24.3195 86.4084 24.2625 86.0743 24.2625H84.913V31H83.1908ZM92.1049 22.8545V31H90.4106V22.8545H92.1049ZM95.2042 31.1153C94.8144 31.1153 94.467 31.0477 94.1621 30.9125C93.8572 30.7746 93.6159 30.5718 93.4383 30.304C93.2633 30.0335 93.1758 29.6968 93.1758 29.2938C93.1758 28.9544 93.2381 28.6693 93.3627 28.4386C93.4873 28.208 93.657 28.0223 93.8718 27.8818C94.0866 27.7413 94.3305 27.6352 94.6036 27.5636C94.8794 27.492 95.1684 27.4417 95.4706 27.4125C95.826 27.3754 96.1123 27.3409 96.3297 27.3091C96.5472 27.2746 96.7049 27.2242 96.803 27.158C96.9011 27.0917 96.9502 26.9936 96.9502 26.8636V26.8398C96.9502 26.5879 96.8706 26.393 96.7116 26.2551C96.5551 26.1172 96.3324 26.0483 96.0434 26.0483C95.7384 26.0483 95.4958 26.1159 95.3155 26.2511C95.1352 26.3837 95.0159 26.5508 94.9576 26.7523L93.3905 26.625C93.4701 26.2538 93.6265 25.933 93.8599 25.6625C94.0932 25.3894 94.3941 25.1799 94.7627 25.0341C95.1339 24.8856 95.5635 24.8114 96.0513 24.8114C96.3907 24.8114 96.7155 24.8511 97.0258 24.9307C97.3386 25.0102 97.6157 25.1335 97.857 25.3006C98.1009 25.4676 98.2932 25.6824 98.4337 25.9449C98.5742 26.2047 98.6445 26.5163 98.6445 26.8795V31H97.0377V30.1528H96.99C96.8919 30.3438 96.7606 30.5121 96.5962 30.658C96.4318 30.8011 96.2343 30.9138 96.0036 30.996C95.7729 31.0756 95.5064 31.1153 95.2042 31.1153ZM95.6894 29.946C95.9386 29.946 96.1587 29.897 96.3496 29.7989C96.5405 29.6981 96.6903 29.5629 96.7991 29.3932C96.9078 29.2235 96.9621 29.0312 96.9621 28.8165V28.1682C96.9091 28.2027 96.8362 28.2345 96.7434 28.2636C96.6532 28.2902 96.5511 28.3153 96.4371 28.3392C96.3231 28.3604 96.2091 28.3803 96.0951 28.3989C95.9811 28.4148 95.8777 28.4294 95.7849 28.4426C95.586 28.4718 95.4123 28.5182 95.2638 28.5818C95.1153 28.6455 95 28.7316 94.9178 28.8403C94.8356 28.9464 94.7945 29.079 94.7945 29.2381C94.7945 29.4688 94.878 29.6451 95.0451 29.767C95.2148 29.8864 95.4295 29.946 95.6894 29.946ZM100.786 33.2909C100.571 33.2909 100.37 33.2737 100.182 33.2392C99.9961 33.2074 99.8423 33.1663 99.7204 33.1159L100.102 31.8511C100.301 31.9121 100.48 31.9453 100.639 31.9506C100.801 31.9559 100.94 31.9188 101.057 31.8392C101.176 31.7597 101.273 31.6244 101.347 31.4335L101.446 31.175L99.255 24.8909H101.037L102.302 29.3773H102.365L103.642 24.8909H105.436L103.061 31.6602C102.947 31.989 102.792 32.2754 102.596 32.5193C102.402 32.7659 102.157 32.9555 101.86 33.0881C101.563 33.2233 101.205 33.2909 100.786 33.2909Z" fill="#282828"/>
<g filter="url(#filter1_ii_455_2082)">
<path d="M10.832 9.97034C10.5605 10.2577 10.4 10.7038 10.4 11.2813V31.9178C10.4 32.4963 10.5605 32.9414 10.832 33.2288L10.9011 33.2959L22.4613 21.7358V21.5995V21.4633L10.9011 9.90222L10.832 9.97034Z" fill="url(#paint0_linear_455_2082)"/>
<path d="M26.3141 25.5904L22.4613 21.7358V21.5995V21.4633L26.315 17.6096L26.4018 17.6591L30.9674 20.2531C32.271 20.994 32.271 22.2061 30.9674 22.9479L26.4018 25.5419L26.3141 25.5904Z" fill="url(#paint1_linear_455_2082)"/>
<g filter="url(#filter2_i_455_2082)">
<path d="M26.4016 25.5411L22.4602 21.5997L10.8319 33.2289C11.2611 33.6843 11.9712 33.7403 12.7709 33.2868L26.4016 25.5411Z" fill="url(#paint2_linear_455_2082)"/>
</g>
<path d="M26.4016 17.6583L12.7709 9.91357C11.9712 9.45915 11.2611 9.51607 10.8319 9.97142L22.4611 21.6006L26.4016 17.6583Z" fill="url(#paint3_linear_455_2082)"/>
</g>
<defs>
<filter id="filter0_dddd_455_2082" x="-40.8" y="-14.4" width="193.6" height="121.6" filterUnits="userSpaceOnUse" color-interpolation-filters="sRGB">
<feFlood flood-opacity="0" result="BackgroundImageFix"/>
<feColorMatrix in="SourceAlpha" type="matrix" values="0 0 0 0 0 0 0 0 0 0 0 0 0 0 0 0 0 0 127 0" result="hardAlpha"/>
<feOffset dy="1.1956"/>
<feGaussianBlur stdDeviation="0.923875"/>
<feColorMatrix type="matrix" values="0 0 0 0 0 0 0 0 0 0 0 0 0 0 0 0 0 0 0.0268173 0"/>
<feBlend mode="normal" in2="BackgroundImageFix" result="effect1_dropShadow_455_2082"/>
<feColorMatrix in="SourceAlpha" type="matrix" values="0 0 0 0 0 0 0 0 0 0 0 0 0 0 0 0 0 0 127 0" result="hardAlpha"/>
<feOffset dy="3.30569"/>
<feGaussianBlur stdDeviation="2.5544"/>
<feColorMatrix type="matrix" values="0 0 0 0 0 0 0 0 0 0 0 0 0 0 0 0 0 0 0.0399899 0"/>
<feBlend mode="normal" in2="effect1_dropShadow_455_2082" result="effect2_dropShadow_455_2082"/>
<feColorMatrix in="SourceAlpha" type="matrix" values="0 0 0 0 0 0 0 0 0 0 0 0 0 0 0 0 0 0 127 0" result="hardAlpha"/>
<feOffset dy="7.95883"/>
<feGaussianBlur stdDeviation="6.15"/>
<feColorMatrix type="matrix" values="0 0 0 0 0 0 0 0 0 0 0 0 0 0 0 0 0 0 0.0582218 0"/>
<feBlend mode="normal" in2="effect2_dropShadow_455_2082" result="effect3_dropShadow_455_2082"/>
<feColorMatrix in="SourceAlpha" type="matrix" values="0 0 0 0 0 0 0 0 0 0 0 0 0 0 0 0 0 0 127 0" result="hardAlpha"/>
<feOffset dy="26.4"/>
<feGaussianBlur stdDeviation="20.4"/>
<feColorMatrix type="matrix" values="0 0 0 0 0 0 0 0 0 0 0 0 0 0 0 0 0 0 0.08 0"/>
<feBlend mode="normal" in2="effect3_dropShadow_455_2082" result="effect4_dropShadow_455_2082"/>
<feBlend mode="normal" in="SourceGraphic" in2="effect4_dropShadow_455_2082" result="shape"/>
</filter>
<filter id="filter1_ii_455_2082" x="10.4" y="9.59998" width="21.545" height="24" filterUnits="userSpaceOnUse" color-interpolation-filters="sRGB">
<feFlood flood-opacity="0" result="BackgroundImageFix"/>
<feBlend mode="normal" in="SourceGraphic" in2="BackgroundImageFix" result="shape"/>
<feColorMatrix in="SourceAlpha" type="matrix" values="0 0 0 0 0 0 0 0 0 0 0 0 0 0 0 0 0 0 127 0" result="hardAlpha"/>
<feOffset dy="-0.12"/>
<feComposite in2="hardAlpha" operator="arithmetic" k2="-1" k3="1"/>
<feColorMatrix type="matrix" values="0 0 0 0 0 0 0 0 0 0 0 0 0 0 0 0 0 0 0.12 0"/>
<feBlend mode="normal" in2="shape" result="effect1_innerShadow_455_2082"/>
<feColorMatrix in="SourceAlpha" type="matrix" values="0 0 0 0 0 0 0 0 0 0 0 0 0 0 0 0 0 0 127 0" result="hardAlpha"/>
<feOffset dy="0.12"/>
<feComposite in2="hardAlpha" operator="arithmetic" k2="-1" k3="1"/>
<feColorMatrix type="matrix" values="0 0 0 0 1 0 0 0 0 1 0 0 0 0 1 0 0 0 0.25 0"/>
<feBlend mode="normal" in2="effect1_innerShadow_455_2082" result="effect2_innerShadow_455_2082"/>
</filter>
<filter id="filter2_i_455_2082" x="10.8319" y="21.5997" width="15.5697" height="12.0002" filterUnits="userSpaceOnUse" color-interpolation-filters="sRGB">
<feFlood flood-opacity="0" result="BackgroundImageFix"/>
<feBlend mode="normal" in="SourceGraphic" in2="BackgroundImageFix" result="shape"/>
<feColorMatrix in="SourceAlpha" type="matrix" values="0 0 0 0 0 0 0 0 0 0 0 0 0 0 0 0 0 0 127 0" result="hardAlpha"/>
<feOffset dy="-0.12"/>
<feComposite in2="hardAlpha" operator="arithmetic" k2="-1" k3="1"/>
<feColorMatrix type="matrix" values="0 0 0 0 0 0 0 0 0 0 0 0 0 0 0 0 0 0 0.08 0"/>
<feBlend mode="normal" in2="shape" result="effect1_innerShadow_455_2082"/>
</filter>
<linearGradient id="paint0_linear_455_2082" x1="21.4365" y1="11.063" x2="5.77727" y2="26.7223" gradientUnits="userSpaceOnUse">
<stop stop-color="#00A0FF"/>
<stop offset="0.0066" stop-color="#00A1FF"/>
<stop offset="0.2601" stop-color="#00BEFF"/>
<stop offset="0.5122" stop-color="#00D2FF"/>
<stop offset="0.7604" stop-color="#00DFFF"/>
<stop offset="1" stop-color="#00E3FF"/>
</linearGradient>
<linearGradient id="paint1_linear_455_2082" x1="32.6643" y1="21.5995" x2="10.0871" y2="21.5995" gradientUnits="userSpaceOnUse">
<stop stop-color="#FFE000"/>
<stop offset="0.4087" stop-color="#FFBD00"/>
<stop offset="0.7754" stop-color="#FFA500"/>
<stop offset="1" stop-color="#FF9C00"/>
</linearGradient>
<linearGradient id="paint2_linear_455_2082" x1="24.2612" y1="23.7402" x2="3.02523" y2="44.9761" gradientUnits="userSpaceOnUse">
<stop stop-color="#FF3A44"/>
<stop offset="1" stop-color="#C31162"/>
</linearGradient>
<linearGradient id="paint3_linear_455_2082" x1="7.90329" y1="3.10176" x2="17.3857" y2="12.5842" gradientUnits="userSpaceOnUse">
<stop stop-color="#32A071"/>
<stop offset="0.0685" stop-color="#2DA771"/>
<stop offset="0.4762" stop-color="#15CF74"/>
<stop offset="0.8009" stop-color="#06E775"/>
<stop offset="1" stop-color="#00F076"/>
</linearGradient>
</defs>
</svg>
