<svg width="112" height="40" viewBox="0 0 112 40" fill="none" xmlns="http://www.w3.org/2000/svg">
<g filter="url(#filter0_dddd_455_2093)">
<rect width="112" height="40" rx="3.2" fill="white"/>
<rect x="0.8" y="0.8" width="110.4" height="38.4" rx="2.4" stroke="#E8E8E8" stroke-width="1.6"/>
</g>
<path d="M26.0913 22.2211C26.1151 20.3684 27.1101 18.6154 28.6885 17.645C27.6928 16.2229 26.0249 15.3212 24.2897 15.2669C22.439 15.0727 20.6447 16.3744 19.7016 16.3744C18.7403 16.3744 17.2882 15.2862 15.7246 15.3184C13.6864 15.3842 11.7864 16.543 10.7948 18.3249C8.66325 22.0153 10.2532 27.439 12.295 30.422C13.3166 31.8827 14.5105 33.5144 16.0727 33.4565C17.6015 33.3931 18.1724 32.4817 20.0177 32.4817C21.8459 32.4817 22.3816 33.4565 23.9755 33.4197C25.6159 33.3931 26.6494 31.9525 27.6352 30.478C28.3692 29.4372 28.934 28.2868 29.3087 27.0696C27.3809 26.2543 26.0935 24.3142 26.0913 22.2211Z" fill="#282828"/>
<path d="M23.0806 13.3051C23.975 12.2314 24.4156 10.8514 24.3089 9.45801C22.9425 9.60153 21.6802 10.2546 20.7737 11.2871C19.8873 12.2959 19.426 13.6517 19.5132 14.9918C20.8802 15.0059 22.224 14.3705 23.0806 13.3051Z" fill="#282828"/>
<path d="M41.7 17.6H39.9045V11.7818H41.7795C42.3439 11.7818 42.8268 11.8983 43.2284 12.1312C43.6299 12.3623 43.9376 12.6947 44.1517 13.1284C44.3657 13.5602 44.4727 14.0772 44.4727 14.6795C44.4727 15.2856 44.3647 15.8074 44.1488 16.2449C43.9329 16.6805 43.6185 17.0157 43.2056 17.2505C42.7928 17.4835 42.2909 17.6 41.7 17.6ZM40.609 16.975H41.6545C42.1356 16.975 42.5342 16.8822 42.8505 16.6966C43.1668 16.511 43.4026 16.2468 43.5579 15.904C43.7132 15.5611 43.7909 15.153 43.7909 14.6795C43.7909 14.2098 43.7142 13.8055 43.5607 13.4665C43.4073 13.1255 43.1782 12.8642 42.8732 12.6824C42.5683 12.4986 42.1886 12.4068 41.734 12.4068H40.609V16.975ZM47.3363 17.6909C46.9424 17.6909 46.5967 17.5971 46.2994 17.4096C46.0039 17.2221 45.7729 16.9598 45.6062 16.6227C45.4414 16.2856 45.359 15.8916 45.359 15.4409C45.359 14.9863 45.4414 14.5896 45.6062 14.2505C45.7729 13.9115 46.0039 13.6483 46.2994 13.4608C46.5967 13.2733 46.9424 13.1795 47.3363 13.1795C47.7303 13.1795 48.075 13.2733 48.3704 13.4608C48.6678 13.6483 48.8988 13.9115 49.0636 14.2505C49.2303 14.5896 49.3136 14.9863 49.3136 15.4409C49.3136 15.8916 49.2303 16.2856 49.0636 16.6227C48.8988 16.9598 48.6678 17.2221 48.3704 17.4096C48.075 17.5971 47.7303 17.6909 47.3363 17.6909ZM47.3363 17.0886C47.6356 17.0886 47.8818 17.0119 48.075 16.8585C48.2681 16.7051 48.4111 16.5034 48.5039 16.2534C48.5967 16.0034 48.6431 15.7326 48.6431 15.4409C48.6431 15.1492 48.5967 14.8774 48.5039 14.6255C48.4111 14.3736 48.2681 14.1701 48.075 14.0147C47.8818 13.8594 47.6356 13.7818 47.3363 13.7818C47.0371 13.7818 46.7909 13.8594 46.5977 14.0147C46.4045 14.1701 46.2615 14.3736 46.1687 14.6255C46.0759 14.8774 46.0295 15.1492 46.0295 15.4409C46.0295 15.7326 46.0759 16.0034 46.1687 16.2534C46.2615 16.5034 46.4045 16.7051 46.5977 16.8585C46.7909 17.0119 47.0371 17.0886 47.3363 17.0886ZM51.1772 17.6L49.8477 13.2363H50.5522L51.4954 16.5772H51.5409L52.4727 13.2363H53.1886L54.109 16.5659H54.1545L55.0977 13.2363H55.8022L54.4727 17.6H53.8136L52.859 14.2477H52.7909L51.8363 17.6H51.1772ZM57.359 14.975V17.6H56.6886V13.2363H57.3363V13.9182H57.3931C57.4954 13.6966 57.6507 13.5185 57.859 13.3841C58.0674 13.2477 58.3363 13.1795 58.6659 13.1795C58.9613 13.1795 59.2198 13.2401 59.4414 13.3613C59.663 13.4807 59.8354 13.6625 59.9585 13.9068C60.0816 14.1492 60.1431 14.456 60.1431 14.8272V17.6H59.4727V14.8727C59.4727 14.5299 59.3837 14.2629 59.2056 14.0716C59.0276 13.8784 58.7833 13.7818 58.4727 13.7818C58.2587 13.7818 58.0674 13.8282 57.8988 13.921C57.7321 14.0138 57.6005 14.1492 57.5039 14.3272C57.4073 14.5053 57.359 14.7212 57.359 14.975ZM62.0387 11.7818V17.6H61.3683V11.7818H62.0387ZM65.0394 17.6909C64.6455 17.6909 64.2999 17.5971 64.0025 17.4096C63.7071 17.2221 63.476 16.9598 63.3093 16.6227C63.1446 16.2856 63.0622 15.8916 63.0622 15.4409C63.0622 14.9863 63.1446 14.5896 63.3093 14.2505C63.476 13.9115 63.7071 13.6483 64.0025 13.4608C64.2999 13.2733 64.6455 13.1795 65.0394 13.1795C65.4334 13.1795 65.7781 13.2733 66.0735 13.4608C66.3709 13.6483 66.6019 13.9115 66.7667 14.2505C66.9334 14.5896 67.0167 14.9863 67.0167 15.4409C67.0167 15.8916 66.9334 16.2856 66.7667 16.6227C66.6019 16.9598 66.3709 17.2221 66.0735 17.4096C65.7781 17.5971 65.4334 17.6909 65.0394 17.6909ZM65.0394 17.0886C65.3387 17.0886 65.5849 17.0119 65.7781 16.8585C65.9713 16.7051 66.1143 16.5034 66.2071 16.2534C66.2999 16.0034 66.3463 15.7326 66.3463 15.4409C66.3463 15.1492 66.2999 14.8774 66.2071 14.6255C66.1143 14.3736 65.9713 14.1701 65.7781 14.0147C65.5849 13.8594 65.3387 13.7818 65.0394 13.7818C64.7402 13.7818 64.494 13.8594 64.3008 14.0147C64.1076 14.1701 63.9646 14.3736 63.8718 14.6255C63.779 14.8774 63.7326 15.1492 63.7326 15.4409C63.7326 15.7326 63.779 16.0034 63.8718 16.2534C63.9646 16.5034 64.1076 16.7051 64.3008 16.8585C64.494 17.0119 64.7402 17.0886 65.0394 17.0886ZM69.3242 17.7022C69.0477 17.7022 68.7968 17.6502 68.5714 17.546C68.346 17.4399 68.167 17.2875 68.0345 17.0886C67.9019 16.8879 67.8356 16.6454 67.8356 16.3613C67.8356 16.1113 67.8848 15.9087 67.9833 15.7534C68.0818 15.5962 68.2134 15.4731 68.3782 15.3841C68.543 15.2951 68.7248 15.2288 68.9237 15.1852C69.1244 15.1397 69.3261 15.1038 69.5288 15.0772C69.7939 15.0432 70.0089 15.0176 70.1737 15.0005C70.3403 14.9816 70.4616 14.9504 70.5373 14.9068C70.615 14.8632 70.6538 14.7875 70.6538 14.6795V14.6568C70.6538 14.3765 70.5771 14.1587 70.4237 14.0034C70.2722 13.8481 70.042 13.7704 69.7333 13.7704C69.4133 13.7704 69.1623 13.8405 68.9805 13.9807C68.7987 14.1208 68.6708 14.2704 68.597 14.4295L67.9606 14.2022C68.0742 13.9371 68.2258 13.7307 68.4152 13.5829C68.6064 13.4333 68.8148 13.3291 69.0402 13.2704C69.2674 13.2098 69.4909 13.1795 69.7106 13.1795C69.8508 13.1795 70.0117 13.1966 70.1936 13.2307C70.3773 13.2629 70.5544 13.3301 70.7248 13.4324C70.8972 13.5346 71.0402 13.689 71.1538 13.8954C71.2674 14.1019 71.3242 14.3784 71.3242 14.725V17.6H70.6538V17.0091H70.6197C70.5742 17.1038 70.4985 17.2051 70.3924 17.313C70.2864 17.421 70.1453 17.5129 69.9691 17.5886C69.793 17.6644 69.578 17.7022 69.3242 17.7022ZM69.4265 17.1C69.6917 17.1 69.9152 17.0479 70.097 16.9437C70.2807 16.8396 70.4189 16.7051 70.5117 16.5403C70.6064 16.3755 70.6538 16.2022 70.6538 16.0204V15.4068C70.6254 15.4409 70.5629 15.4721 70.4663 15.5005C70.3716 15.5271 70.2617 15.5507 70.1367 15.5716C70.0136 15.5905 69.8934 15.6076 69.7759 15.6227C69.6604 15.636 69.5667 15.6473 69.4947 15.6568C69.3205 15.6795 69.1576 15.7165 69.0061 15.7676C68.8564 15.8168 68.7352 15.8916 68.6424 15.992C68.5515 16.0905 68.5061 16.225 68.5061 16.3954C68.5061 16.6284 68.5922 16.8045 68.7646 16.9238C68.9388 17.0413 69.1595 17.1 69.4265 17.1ZM74.1957 17.6909C73.8321 17.6909 73.511 17.599 73.2326 17.4153C72.9542 17.2297 72.7364 16.9683 72.5792 16.6312C72.422 16.2922 72.3434 15.8916 72.3434 15.4295C72.3434 14.9712 72.422 14.5735 72.5792 14.2363C72.7364 13.8992 72.9552 13.6388 73.2355 13.4551C73.5158 13.2714 73.8396 13.1795 74.2071 13.1795C74.4911 13.1795 74.7156 13.2269 74.8803 13.3216C75.047 13.4144 75.1739 13.5204 75.261 13.6397C75.35 13.7572 75.4192 13.8538 75.4684 13.9295H75.5252V11.7818H76.1957V17.6H75.548V16.9295H75.4684C75.4192 17.0091 75.3491 17.1094 75.2582 17.2307C75.1673 17.35 75.0375 17.457 74.869 17.5517C74.7004 17.6445 74.476 17.6909 74.1957 17.6909ZM74.2866 17.0886C74.5555 17.0886 74.7828 17.0185 74.9684 16.8784C75.154 16.7363 75.2951 16.5403 75.3917 16.2903C75.4883 16.0384 75.5366 15.7477 75.5366 15.4182C75.5366 15.0924 75.4893 14.8074 75.3946 14.563C75.2999 14.3168 75.1597 14.1255 74.9741 13.9892C74.7885 13.8509 74.5593 13.7818 74.2866 13.7818C74.0025 13.7818 73.7658 13.8547 73.5764 14.0005C73.3889 14.1445 73.2478 14.3405 73.1531 14.5886C73.0603 14.8348 73.0139 15.1113 73.0139 15.4182C73.0139 15.7288 73.0612 16.011 73.1559 16.2647C73.2525 16.5166 73.3946 16.7174 73.5821 16.867C73.7714 17.0147 74.0063 17.0886 74.2866 17.0886ZM81.5394 17.6909C81.1455 17.6909 80.7999 17.5971 80.5025 17.4096C80.2071 17.2221 79.976 16.9598 79.8093 16.6227C79.6446 16.2856 79.5622 15.8916 79.5622 15.4409C79.5622 14.9863 79.6446 14.5896 79.8093 14.2505C79.976 13.9115 80.2071 13.6483 80.5025 13.4608C80.7999 13.2733 81.1455 13.1795 81.5394 13.1795C81.9334 13.1795 82.2781 13.2733 82.5735 13.4608C82.8709 13.6483 83.1019 13.9115 83.2667 14.2505C83.4334 14.5896 83.5167 14.9863 83.5167 15.4409C83.5167 15.8916 83.4334 16.2856 83.2667 16.6227C83.1019 16.9598 82.8709 17.2221 82.5735 17.4096C82.2781 17.5971 81.9334 17.6909 81.5394 17.6909ZM81.5394 17.0886C81.8387 17.0886 82.0849 17.0119 82.2781 16.8585C82.4713 16.7051 82.6143 16.5034 82.7071 16.2534C82.7999 16.0034 82.8463 15.7326 82.8463 15.4409C82.8463 15.1492 82.7999 14.8774 82.7071 14.6255C82.6143 14.3736 82.4713 14.1701 82.2781 14.0147C82.0849 13.8594 81.8387 13.7818 81.5394 13.7818C81.2402 13.7818 80.994 13.8594 80.8008 14.0147C80.6076 14.1701 80.4646 14.3736 80.3718 14.6255C80.279 14.8774 80.2326 15.1492 80.2326 15.4409C80.2326 15.7326 80.279 16.0034 80.3718 16.2534C80.4646 16.5034 80.6076 16.7051 80.8008 16.8585C80.994 17.0119 81.2402 17.0886 81.5394 17.0886ZM85.2106 14.975V17.6H84.5402V13.2363H85.1879V13.9182H85.2447C85.347 13.6966 85.5023 13.5185 85.7106 13.3841C85.9189 13.2477 86.1879 13.1795 86.5174 13.1795C86.8129 13.1795 87.0714 13.2401 87.293 13.3613C87.5146 13.4807 87.6869 13.6625 87.81 13.9068C87.9331 14.1492 87.9947 14.456 87.9947 14.8272V17.6H87.3242V14.8727C87.3242 14.5299 87.2352 14.2629 87.0572 14.0716C86.8792 13.8784 86.6348 13.7818 86.3242 13.7818C86.1102 13.7818 85.9189 13.8282 85.7504 13.921C85.5837 14.0138 85.4521 14.1492 85.3555 14.3272C85.2589 14.5053 85.2106 14.7212 85.2106 14.975ZM93.3676 13.2363V13.8045H91.1062V13.2363H93.3676ZM91.7653 12.1909H92.4357V16.35C92.4357 16.5394 92.4632 16.6814 92.5181 16.7761C92.575 16.8689 92.6469 16.9314 92.734 16.9636C92.8231 16.9939 92.9168 17.0091 93.0153 17.0091C93.0892 17.0091 93.1498 17.0053 93.1971 16.9977C93.2445 16.9882 93.2823 16.9807 93.3107 16.975L93.4471 17.5772C93.4017 17.5943 93.3382 17.6113 93.2568 17.6284C93.1753 17.6473 93.0721 17.6568 92.9471 17.6568C92.7577 17.6568 92.5721 17.6161 92.3903 17.5346C92.2104 17.4532 92.0607 17.3291 91.9414 17.1625C91.824 16.9958 91.7653 16.7856 91.7653 16.5318V12.1909ZM95.1403 14.975V17.6H94.4698V11.7818H95.1403V13.9182H95.1971C95.2994 13.6928 95.4528 13.5138 95.6573 13.3812C95.8638 13.2468 96.1384 13.1795 96.4812 13.1795C96.7785 13.1795 97.039 13.2392 97.2625 13.3585C97.4859 13.4759 97.6592 13.6568 97.7823 13.9011C97.9073 14.1435 97.9698 14.4522 97.9698 14.8272V17.6H97.2994V14.8727C97.2994 14.5261 97.2094 14.2581 97.0295 14.0687C96.8515 13.8774 96.6043 13.7818 96.288 13.7818C96.0683 13.7818 95.8714 13.8282 95.6971 13.921C95.5248 14.0138 95.3884 14.1492 95.288 14.3272C95.1895 14.5053 95.1403 14.7212 95.1403 14.975ZM101.026 17.6909C100.605 17.6909 100.243 17.5981 99.9379 17.4125C99.6348 17.225 99.4009 16.9636 99.2362 16.6284C99.0733 16.2913 98.9919 15.8992 98.9919 15.4522C98.9919 15.0053 99.0733 14.6113 99.2362 14.2704C99.4009 13.9276 99.6301 13.6606 99.9237 13.4693C100.219 13.2761 100.564 13.1795 100.958 13.1795C101.185 13.1795 101.409 13.2174 101.631 13.2932C101.853 13.3689 102.054 13.492 102.236 13.6625C102.418 13.831 102.563 14.0545 102.671 14.3329C102.779 14.6113 102.833 14.9541 102.833 15.3613V15.6454H99.4691V15.0659H102.151C102.151 14.8197 102.102 14.6 102.003 14.4068C101.907 14.2136 101.768 14.0611 101.588 13.9494C101.41 13.8377 101.2 13.7818 100.958 13.7818C100.691 13.7818 100.46 13.8481 100.265 13.9807C100.071 14.1113 99.9227 14.2818 99.8186 14.492C99.7144 14.7022 99.6623 14.9276 99.6623 15.1682V15.5545C99.6623 15.8841 99.7191 16.1634 99.8328 16.3926C99.9483 16.6199 100.108 16.7932 100.313 16.9125C100.517 17.0299 100.755 17.0886 101.026 17.0886C101.202 17.0886 101.361 17.064 101.503 17.0147C101.647 16.9636 101.771 16.8879 101.875 16.7875C101.98 16.6852 102.06 16.5583 102.117 16.4068L102.765 16.5886C102.696 16.8083 102.582 17.0015 102.421 17.1682C102.26 17.3329 102.061 17.4617 101.824 17.5545C101.587 17.6454 101.321 17.6909 101.026 17.6909Z" fill="#282828"/>
<path d="M41.3119 31H39.4664L42.2784 22.8545H44.4977L47.3056 31H45.4602L43.4198 24.7159H43.3562L41.3119 31ZM41.1965 27.7983H45.5556V29.1426H41.1965V27.7983ZM48.2542 33.2909V24.8909H49.9247V25.917H50.0002C50.0745 25.7527 50.1819 25.5856 50.3224 25.4159C50.4656 25.2436 50.6512 25.1004 50.8792 24.9864C51.1099 24.8697 51.3963 24.8114 51.7383 24.8114C52.1838 24.8114 52.5947 24.928 52.9713 25.1614C53.3478 25.392 53.6487 25.7407 53.8741 26.2074C54.0995 26.6714 54.2122 27.2534 54.2122 27.9534C54.2122 28.6348 54.1021 29.2102 53.8821 29.6795C53.6646 30.1462 53.3677 30.5002 52.9911 30.7415C52.6173 30.9801 52.1983 31.0994 51.7343 31.0994C51.4055 31.0994 51.1258 31.0451 50.8951 30.9364C50.6671 30.8277 50.4802 30.6911 50.3343 30.5267C50.1885 30.3597 50.0771 30.1913 50.0002 30.0216H49.9485V33.2909H48.2542ZM49.9127 27.9455C49.9127 28.3087 49.9631 28.6256 50.0639 28.896C50.1646 29.1665 50.3105 29.3773 50.5014 29.5284C50.6923 29.6769 50.9243 29.7511 51.1974 29.7511C51.4732 29.7511 51.7065 29.6756 51.8974 29.5244C52.0883 29.3706 52.2328 29.1585 52.3309 28.8881C52.4317 28.615 52.4821 28.3008 52.4821 27.9455C52.4821 27.5928 52.433 27.2826 52.3349 27.0148C52.2368 26.747 52.0923 26.5375 51.9014 26.3864C51.7105 26.2352 51.4758 26.1597 51.1974 26.1597C50.9216 26.1597 50.6883 26.2326 50.4974 26.3784C50.3091 26.5242 50.1646 26.7311 50.0639 26.9989C49.9631 27.2667 49.9127 27.5822 49.9127 27.9455ZM55.3417 33.2909V24.8909H57.0122V25.917H57.0877C57.162 25.7527 57.2694 25.5856 57.4099 25.4159C57.5531 25.2436 57.7387 25.1004 57.9667 24.9864C58.1974 24.8697 58.4838 24.8114 58.8258 24.8114C59.2713 24.8114 59.6822 24.928 60.0588 25.1614C60.4353 25.392 60.7362 25.7407 60.9616 26.2074C61.187 26.6714 61.2997 27.2534 61.2997 27.9534C61.2997 28.6348 61.1896 29.2102 60.9696 29.6795C60.7521 30.1462 60.4552 30.5002 60.0786 30.7415C59.7048 30.9801 59.2858 31.0994 58.8218 31.0994C58.493 31.0994 58.2133 31.0451 57.9826 30.9364C57.7546 30.8277 57.5677 30.6911 57.4218 30.5267C57.276 30.3597 57.1646 30.1913 57.0877 30.0216H57.036V33.2909H55.3417ZM57.0002 27.9455C57.0002 28.3087 57.0506 28.6256 57.1514 28.896C57.2521 29.1665 57.398 29.3773 57.5889 29.5284C57.7798 29.6769 58.0118 29.7511 58.2849 29.7511C58.5607 29.7511 58.794 29.6756 58.9849 29.5244C59.1758 29.3706 59.3203 29.1585 59.4184 28.8881C59.5192 28.615 59.5696 28.3008 59.5696 27.9455C59.5696 27.5928 59.5205 27.2826 59.4224 27.0148C59.3243 26.747 59.1798 26.5375 58.9889 26.3864C58.798 26.2352 58.5633 26.1597 58.2849 26.1597C58.0091 26.1597 57.7758 26.2326 57.5849 26.3784C57.3966 26.5242 57.2521 26.7311 57.1514 26.9989C57.0506 27.2667 57.0002 27.5822 57.0002 27.9455ZM69.472 25.1972C69.4402 24.8763 69.3036 24.6271 69.0623 24.4494C68.821 24.2718 68.4936 24.183 68.0799 24.183C67.7989 24.183 67.5616 24.2227 67.368 24.3023C67.1744 24.3792 67.0259 24.4866 66.9225 24.6244C66.8218 24.7623 66.7714 24.9188 66.7714 25.0938C66.7661 25.2396 66.7966 25.3669 66.8629 25.4756C66.9318 25.5843 67.0259 25.6784 67.1453 25.758C67.2646 25.8348 67.4025 25.9025 67.5589 25.9608C67.7153 26.0165 67.8824 26.0642 68.06 26.104L68.7919 26.279C69.1472 26.3585 69.4733 26.4646 69.7703 26.5972C70.0672 26.7297 70.3244 26.8928 70.5419 27.0864C70.7593 27.2799 70.9277 27.508 71.047 27.7705C71.1689 28.033 71.2312 28.3339 71.2339 28.6733C71.2312 29.1718 71.104 29.604 70.8521 29.9699C70.6028 30.3331 70.2422 30.6155 69.7703 30.817C69.3009 31.0159 68.7348 31.1153 68.072 31.1153C67.4144 31.1153 66.8417 31.0146 66.3538 30.8131C65.8686 30.6116 65.4894 30.3133 65.2163 29.9182C64.9458 29.5205 64.804 29.0286 64.7907 28.4426H66.4572C66.4758 28.7157 66.554 28.9437 66.6919 29.1267C66.8324 29.307 67.0193 29.4436 67.2527 29.5364C67.4886 29.6265 67.7551 29.6716 68.0521 29.6716C68.3437 29.6716 68.597 29.6292 68.8117 29.5443C69.0292 29.4595 69.1975 29.3415 69.3169 29.1903C69.4362 29.0392 69.4958 28.8655 69.4958 28.6693C69.4958 28.4864 69.4415 28.3326 69.3328 28.208C69.2267 28.0833 69.0703 27.9773 68.8634 27.8898C68.6593 27.8023 68.4087 27.7227 68.1117 27.6511L67.2248 27.4284C66.5381 27.2614 65.9958 27.0002 65.5981 26.6449C65.2004 26.2896 65.0028 25.811 65.0055 25.2091C65.0028 24.7159 65.1341 24.285 65.3992 23.9165C65.667 23.5479 66.0343 23.2602 66.5009 23.0534C66.9676 22.8466 67.4979 22.7432 68.0919 22.7432C68.6964 22.7432 69.2241 22.8466 69.6748 23.0534C70.1282 23.2602 70.4809 23.5479 70.7328 23.9165C70.9847 24.285 71.1146 24.7119 71.1225 25.1972H69.472ZM75.6099 24.8909V26.1636H71.9309V24.8909H75.6099ZM72.7661 23.4273H74.4605V29.1227C74.4605 29.2792 74.4843 29.4011 74.5321 29.4886C74.5798 29.5735 74.6461 29.6331 74.7309 29.6676C74.8184 29.7021 74.9192 29.7193 75.0332 29.7193C75.1127 29.7193 75.1923 29.7127 75.2718 29.6994C75.3514 29.6835 75.4124 29.6716 75.4548 29.6636L75.7213 30.9244C75.6364 30.9509 75.5171 30.9814 75.3633 31.0159C75.2095 31.053 75.0226 31.0756 74.8025 31.0835C74.3942 31.0994 74.0362 31.0451 73.7286 30.9205C73.4237 30.7958 73.1864 30.6023 73.0167 30.3398C72.847 30.0773 72.7635 29.7458 72.7661 29.3455V23.4273ZM79.4082 31.1193C78.7904 31.1193 78.2561 30.9881 77.8053 30.7256C77.3572 30.4604 77.0112 30.0919 76.7673 29.6199C76.5233 29.1453 76.4014 28.5951 76.4014 27.9693C76.4014 27.3383 76.5233 26.7867 76.7673 26.3148C77.0112 25.8402 77.3572 25.4716 77.8053 25.2091C78.2561 24.9439 78.7904 24.8114 79.4082 24.8114C80.026 24.8114 80.5589 24.9439 81.0071 25.2091C81.4578 25.4716 81.8052 25.8402 82.0491 26.3148C82.293 26.7867 82.415 27.3383 82.415 27.9693C82.415 28.5951 82.293 29.1453 82.0491 29.6199C81.8052 30.0919 81.4578 30.4604 81.0071 30.7256C80.5589 30.9881 80.026 31.1193 79.4082 31.1193ZM79.4161 29.8068C79.6972 29.8068 79.9319 29.7273 80.1201 29.5682C80.3084 29.4064 80.4502 29.1864 80.5457 28.908C80.6438 28.6295 80.6928 28.3127 80.6928 27.9574C80.6928 27.6021 80.6438 27.2852 80.5457 27.0068C80.4502 26.7284 80.3084 26.5083 80.1201 26.3466C79.9319 26.1848 79.6972 26.104 79.4161 26.104C79.1324 26.104 78.8938 26.1848 78.7002 26.3466C78.5093 26.5083 78.3648 26.7284 78.2667 27.0068C78.1713 27.2852 78.1235 27.6021 78.1235 27.9574C78.1235 28.3127 78.1713 28.6295 78.2667 28.908C78.3648 29.1864 78.5093 29.4064 78.7002 29.5682C78.8938 29.7273 79.1324 29.8068 79.4161 29.8068ZM83.5167 31V24.8909H85.1593V25.9568H85.223C85.3343 25.5777 85.5213 25.2913 85.7838 25.0977C86.0463 24.9015 86.3485 24.8034 86.6906 24.8034C86.7754 24.8034 86.8669 24.8087 86.965 24.8193C87.0631 24.8299 87.1493 24.8445 87.2235 24.8631V26.3665C87.144 26.3426 87.0339 26.3214 86.8934 26.3028C86.7529 26.2843 86.6243 26.275 86.5076 26.275C86.2584 26.275 86.0357 26.3294 85.8394 26.4381C85.6459 26.5441 85.4921 26.6926 85.3781 26.8835C85.2667 27.0744 85.211 27.2945 85.211 27.5438V31H83.5167ZM90.5992 31.1193C89.9708 31.1193 89.4299 30.992 88.9765 30.7375C88.5258 30.4803 88.1784 30.117 87.9345 29.6477C87.6905 29.1758 87.5686 28.6176 87.5686 27.9733C87.5686 27.3449 87.6905 26.7934 87.9345 26.3188C88.1784 25.8441 88.5218 25.4742 88.9646 25.2091C89.41 24.9439 89.9324 24.8114 90.5316 24.8114C90.9347 24.8114 91.3098 24.8763 91.6572 25.0063C92.0072 25.1335 92.3121 25.3258 92.572 25.583C92.8345 25.8402 93.0386 26.1636 93.1845 26.5534C93.3303 26.9405 93.4032 27.3939 93.4032 27.9136V28.379H88.2447V27.329H91.8083C91.8083 27.085 91.7553 26.8689 91.6492 26.6807C91.5432 26.4924 91.396 26.3453 91.2078 26.2392C91.0222 26.1305 90.8061 26.0761 90.5595 26.0761C90.3023 26.0761 90.0742 26.1358 89.8754 26.2551C89.6792 26.3718 89.5254 26.5295 89.414 26.7284C89.3027 26.9246 89.2456 27.1434 89.243 27.3847V28.383C89.243 28.6852 89.2987 28.9464 89.41 29.1665C89.5241 29.3866 89.6845 29.5563 89.8913 29.6756C90.0981 29.7949 90.3434 29.8545 90.6271 29.8545C90.8153 29.8545 90.9877 29.828 91.1441 29.775C91.3006 29.722 91.4345 29.6424 91.5458 29.5364C91.6572 29.4303 91.742 29.3004 91.8004 29.1466L93.3674 29.25C93.2879 29.6265 93.1248 29.9553 92.8782 30.2364C92.6343 30.5148 92.3188 30.7322 91.9316 30.8886C91.5472 31.0424 91.103 31.1193 90.5992 31.1193Z" fill="#282828"/>
<defs>
<filter id="filter0_dddd_455_2093" x="-40.8" y="-14.4" width="193.6" height="121.6" filterUnits="userSpaceOnUse" color-interpolation-filters="sRGB">
<feFlood flood-opacity="0" result="BackgroundImageFix"/>
<feColorMatrix in="SourceAlpha" type="matrix" values="0 0 0 0 0 0 0 0 0 0 0 0 0 0 0 0 0 0 127 0" result="hardAlpha"/>
<feOffset dy="1.1956"/>
<feGaussianBlur stdDeviation="0.923875"/>
<feColorMatrix type="matrix" values="0 0 0 0 0 0 0 0 0 0 0 0 0 0 0 0 0 0 0.0268173 0"/>
<feBlend mode="normal" in2="BackgroundImageFix" result="effect1_dropShadow_455_2093"/>
<feColorMatrix in="SourceAlpha" type="matrix" values="0 0 0 0 0 0 0 0 0 0 0 0 0 0 0 0 0 0 127 0" result="hardAlpha"/>
<feOffset dy="3.30569"/>
<feGaussianBlur stdDeviation="2.5544"/>
<feColorMatrix type="matrix" values="0 0 0 0 0 0 0 0 0 0 0 0 0 0 0 0 0 0 0.0399899 0"/>
<feBlend mode="normal" in2="effect1_dropShadow_455_2093" result="effect2_dropShadow_455_2093"/>
<feColorMatrix in="SourceAlpha" type="matrix" values="0 0 0 0 0 0 0 0 0 0 0 0 0 0 0 0 0 0 127 0" result="hardAlpha"/>
<feOffset dy="7.95883"/>
<feGaussianBlur stdDeviation="6.15"/>
<feColorMatrix type="matrix" values="0 0 0 0 0 0 0 0 0 0 0 0 0 0 0 0 0 0 0.0582218 0"/>
<feBlend mode="normal" in2="effect2_dropShadow_455_2093" result="effect3_dropShadow_455_2093"/>
<feColorMatrix in="SourceAlpha" type="matrix" values="0 0 0 0 0 0 0 0 0 0 0 0 0 0 0 0 0 0 127 0" result="hardAlpha"/>
<feOffset dy="26.4"/>
<feGaussianBlur stdDeviation="20.4"/>
<feColorMatrix type="matrix" values="0 0 0 0 0 0 0 0 0 0 0 0 0 0 0 0 0 0 0.08 0"/>
<feBlend mode="normal" in2="effect3_dropShadow_455_2093" result="effect4_dropShadow_455_2093"/>
<feBlend mode="normal" in="SourceGraphic" in2="effect4_dropShadow_455_2093" result="shape"/>
</filter>
</defs>
</svg>
