<svg width="36" height="36" viewBox="0 0 36 36" fill="none" xmlns="http://www.w3.org/2000/svg">
<path d="M18.0019 26.1368C15.7879 26.1368 15.5269 26.1251 14.6629 26.0873C13.9891 26.0652 13.324 25.9282 12.6964 25.6823C12.1592 25.4733 11.6714 25.1548 11.2639 24.7472C10.8564 24.3396 10.5382 23.8516 10.3294 23.3144C10.0929 22.6845 9.96541 22.0189 9.95226 21.3461C9.90186 20.4839 9.90186 20.2013 9.90186 18.0044C9.90186 15.7841 9.91356 15.5249 9.95226 14.6654C9.9657 13.9936 10.0932 13.3289 10.3294 12.6998C10.5379 12.1619 10.8564 11.6734 11.2644 11.2656C11.6725 10.8577 12.1611 10.5394 12.6991 10.331C13.3278 10.0936 13.9927 9.96575 14.6647 9.95302C15.5242 9.90442 15.8068 9.90442 18.0019 9.90442C20.2339 9.90442 20.4904 9.91612 21.3409 9.95302C22.0141 9.96562 22.6819 10.0934 23.3119 10.331C23.8497 10.5396 24.3382 10.858 24.7462 11.2659C25.1542 11.6737 25.4727 12.1621 25.6816 12.6998C25.9219 13.3388 26.0506 14.0138 26.0605 14.6951C26.1109 15.5573 26.1109 15.839 26.1109 18.035C26.1109 20.231 26.0983 20.519 26.0605 21.3713C26.047 22.0447 25.9192 22.7109 25.6825 23.3414C25.4731 23.879 25.1542 24.3672 24.7461 24.775C24.338 25.1828 23.8496 25.5013 23.3119 25.7102C22.6819 25.946 22.0168 26.0738 21.3445 26.0873C20.485 26.1368 20.2033 26.1368 18.0019 26.1368ZM17.9713 11.3291C15.7699 11.3291 15.5413 11.3399 14.6818 11.3786C14.1684 11.3853 13.6601 11.48 13.1788 11.6585C12.8277 11.7931 12.5087 11.9997 12.2424 12.2651C11.9761 12.5305 11.7683 12.8487 11.6326 13.1993C11.4526 13.6853 11.3581 14.1992 11.3527 14.7176C11.305 15.5897 11.305 15.8183 11.305 18.0044C11.305 20.1644 11.3131 20.4263 11.3527 21.293C11.3608 21.806 11.4553 22.3145 11.6326 22.796C11.908 23.5043 12.4696 24.0641 13.1797 24.3359C13.6604 24.5156 14.1686 24.6103 14.6818 24.6158C15.553 24.6662 15.7825 24.6662 17.9713 24.6662C20.179 24.6662 20.4076 24.6554 21.2599 24.6158C21.7732 24.6096 22.2817 24.5149 22.7629 24.3359C23.112 24.2003 23.4292 23.9936 23.6942 23.7288C23.9591 23.464 24.1661 23.1469 24.3019 22.7978C24.4819 22.3118 24.5764 21.797 24.5818 21.2786H24.5917C24.6304 20.4182 24.6304 20.1887 24.6304 17.99C24.6304 15.7913 24.6205 15.56 24.5818 14.7005C24.5736 14.1879 24.479 13.6804 24.3019 13.1993C24.1664 12.8497 23.9596 12.5322 23.6946 12.2669C23.4296 12.0016 23.1123 11.7944 22.7629 11.6585C22.2814 11.4785 21.7729 11.3849 21.2599 11.3786C20.3896 11.3291 20.1619 11.3291 17.9713 11.3291ZM18.0019 22.1615C17.1789 22.1621 16.3742 21.9185 15.6897 21.4617C15.0051 21.0049 14.4714 20.3553 14.156 19.5951C13.8407 18.835 13.7578 17.9983 13.918 17.1911C14.0782 16.3838 14.4741 15.6422 15.0558 15.06C15.6375 14.4778 16.3788 14.0812 17.1859 13.9204C17.993 13.7595 18.8297 13.8416 19.5901 14.1563C20.3506 14.471 21.0006 15.0042 21.458 15.6883C21.9154 16.3725 22.1597 17.1769 22.1599 17.9999C22.1584 19.1026 21.72 20.1597 20.9406 20.9398C20.1613 21.7198 19.1045 22.1591 18.0019 22.1615ZM18.0019 15.2981C17.4678 15.2981 16.9458 15.4565 16.5018 15.7532C16.0578 16.0498 15.7117 16.4715 15.5074 16.9649C15.303 17.4582 15.2496 18.0011 15.3537 18.5249C15.4579 19.0486 15.7151 19.5297 16.0927 19.9073C16.4703 20.2849 16.9514 20.5421 17.4751 20.6462C17.9989 20.7504 18.5417 20.697 19.0351 20.4926C19.5285 20.2882 19.9501 19.9422 20.2468 19.4982C20.5435 19.0541 20.7019 18.5321 20.7019 17.9981C20.7002 17.2825 20.4152 16.5968 19.9092 16.0908C19.4032 15.5848 18.7174 15.2998 18.0019 15.2981ZM22.3219 14.6564C22.1944 14.6559 22.0684 14.6304 21.9509 14.5812C21.8333 14.532 21.7266 14.4601 21.6369 14.3697C21.4556 14.1871 21.3543 13.9399 21.3553 13.6826C21.3562 13.4253 21.4593 13.1789 21.642 12.9976C21.8246 12.8164 22.0717 12.7151 22.3291 12.716C22.5864 12.717 22.8328 12.8201 23.014 13.0027C23.1953 13.1854 23.2966 13.4325 23.2957 13.6898C23.2947 13.9471 23.1916 14.1935 23.0089 14.3748C22.8263 14.5561 22.5792 14.6574 22.3219 14.6564Z" fill="#D9904E"/>
<circle cx="18" cy="18" r="17.28" stroke="#D9904E" stroke-width="1.44"/>
</svg>
