<svg width="36" height="36" viewBox="0 0 36 36" fill="none" xmlns="http://www.w3.org/2000/svg">
<g id="Group 2">
<path id="TikTok" d="M22.0133 7.8369L21.4825 7H18.2704V14.5375L18.2595 21.9C18.265 21.9547 18.2704 22.0149 18.2704 22.0696C18.2704 23.913 16.7711 25.4172 14.9216 25.4172C13.072 25.4172 11.5727 23.9184 11.5727 22.0696C11.5727 20.2263 13.072 18.722 14.9216 18.722C15.3046 18.722 15.6767 18.7931 16.0214 18.9135V15.2377C15.6658 15.1775 15.2991 15.1447 14.9216 15.1447C11.1076 15.1502 7.99951 18.2571 7.99951 22.0751C7.99951 25.8931 11.1076 29 14.927 29C18.7465 29 21.8546 25.8931 21.8546 22.0751V13.3178C23.239 14.7016 25.0283 16.0527 27.0092 16.4848V12.727C24.8587 11.7752 22.7192 8.9637 22.0133 7.8369Z" stroke="#D9904E" stroke-width="1.25714"/>
<circle id="Ellipse 3" cx="18" cy="18" r="17.28" stroke="#D9904E" stroke-width="1.44"/>
</g>
</svg>
